HIERARCHY
ROOT Hips
{
	OFFSET 0.000000 0.000000 0.000000
	CHANNELS 6 Xposition Yposition Zposition Zrotation Yrotation Xrotation 
	JOINT LHipJoint
	{
		OFFSET 0.000000 0.000000 0.000000
		CHANNELS 3 Zrotation Yrotation Xrotation
		JOINT LeftUpLeg
		{
			OFFSET 1.363060 -1.794630 0.839290
			CHANNELS 3 Zrotation Yrotation Xrotation
			JOINT LeftLeg
			{
				OFFSET 2.448110 -6.726130 0.000000
				CHANNELS 3 Zrotation Yrotation Xrotation
				JOINT LeftFoot
				{
					OFFSET 2.562200 -7.039590 0.000000
					CHANNELS 3 Zrotation Yrotation Xrotation
					JOINT LeftToeBase
					{
						OFFSET 0.157640 -0.433110 2.322550
						CHANNELS 3 Zrotation Yrotation Xrotation
						End Site
						{
							OFFSET 0.000000 0.000000 0.000000
						}
					}
				}
			}
		}
	}
	JOINT RHipJoint
	{
		OFFSET 0.000000 0.000000 0.000000
		CHANNELS 3 Zrotation Yrotation Xrotation
		JOINT RightUpLeg
		{
			OFFSET -1.305520 -1.794630 0.839290
			CHANNELS 3 Zrotation Yrotation Xrotation
			JOINT RightLeg
			{
				OFFSET -2.542530 -6.985550 0.000000
				CHANNELS 3 Zrotation Yrotation Xrotation
				JOINT RightFoot
				{
					OFFSET -2.568260 -7.056230 0.000000
					CHANNELS 3 Zrotation Yrotation Xrotation
					JOINT RightToeBase
					{
						OFFSET -0.164730 -0.452590 2.363150
						CHANNELS 3 Zrotation Yrotation Xrotation
						End Site
						{
							OFFSET 0.000000 0.000000 0.000000
						}
					}
				}
			}
		}
	}
	JOINT LowerBack
	{
		OFFSET 0.000000 0.000000 0.000000
		CHANNELS 3 Zrotation Yrotation Xrotation
		JOINT Spine
		{
			OFFSET 0.028270 2.035590 -0.193380
			CHANNELS 3 Zrotation Yrotation Xrotation
			JOINT Spine1
			{
				OFFSET 0.056720 2.048850 -0.042750
				CHANNELS 3 Zrotation Yrotation Xrotation
				JOINT Neck
				{
					OFFSET 0.000000 0.000000 0.000000
					CHANNELS 3 Zrotation Yrotation Xrotation
					JOINT Neck1
					{
						OFFSET -0.054170 1.746240 0.172020
						CHANNELS 3 Zrotation Yrotation Xrotation
						JOINT Head
						{
							OFFSET 0.104070 1.761360 -0.123970
							CHANNELS 3 Zrotation Yrotation Xrotation
							End Site
							{
								OFFSET 0.000000 0.000000 0.000000
							}
						}
					}
				}
				JOINT LeftShoulder
				{
					OFFSET 0.000000 0.000000 0.000000
					CHANNELS 3 Zrotation Yrotation Xrotation
					JOINT LeftArm
					{
						OFFSET 3.362410 1.200890 -0.311210
						CHANNELS 3 Zrotation Yrotation Xrotation
						JOINT LeftForeArm
						{
							OFFSET 4.983000 -0.000000 -0.000000
							CHANNELS 3 Zrotation Yrotation Xrotation
							JOINT LeftHand
							{
								OFFSET 3.483560 -0.000000 -0.000000
								CHANNELS 3 Zrotation Yrotation Xrotation
								JOINT LeftFingerBase
								{
									OFFSET 0.000000 0.000000 0.000000
									CHANNELS 3 Zrotation Yrotation Xrotation
									JOINT LeftHandIndex1
									{
										OFFSET 0.715260 -0.000000 -0.000000
										CHANNELS 3 Zrotation Yrotation Xrotation
										End Site
										{
											OFFSET 0.000000 0.000000 0.000000
										}
									}
								}
								JOINT LThumb
								{
									OFFSET 0.000000 0.000000 0.000000
									CHANNELS 3 Zrotation Yrotation Xrotation
									End Site
									{
										OFFSET 0.000000 0.000000 0.000000
									}
								}
							}
						}
					}
				}
				JOINT RightShoulder
				{
					OFFSET 0.000000 0.000000 0.000000
					CHANNELS 3 Zrotation Yrotation Xrotation
					JOINT RightArm
					{
						OFFSET -3.136600 1.374050 -0.404650
						CHANNELS 3 Zrotation Yrotation Xrotation
						JOINT RightForeArm
						{
							OFFSET -5.241900 -0.000000 -0.000000
							CHANNELS 3 Zrotation Yrotation Xrotation
							JOINT RightHand
							{
								OFFSET -3.444170 -0.000000 -0.000000
								CHANNELS 3 Zrotation Yrotation Xrotation
								JOINT RightFingerBase
								{
									OFFSET 0.000000 0.000000 0.000000
									CHANNELS 3 Zrotation Yrotation Xrotation
									JOINT RightHandIndex1
									{
										OFFSET -0.622530 -0.000000 -0.000000
										CHANNELS 3 Zrotation Yrotation Xrotation
										End Site
										{
											OFFSET 0.000000 0.000000 0.000000
										}
									}
								}
								JOINT RThumb
								{
									OFFSET 0.000000 0.000000 0.000000
									CHANNELS 3 Zrotation Yrotation Xrotation
									End Site
									{
										OFFSET 0.000000 0.000000 0.000000
									}
								}
							}
						}
					}
				}
			}
		}
	}
}
MOTION
Frames: 8
Frame Time: 0.008333
27.030493 16.207257 2.365233 155.666364 -86.400030 -142.969689 -9.124823 -0.046132 2.777453 -14.750838 -0.501835 -49.627415 -1.434204 1.834676 43.880396 1.511330 6.005556 -11.096694 -0.307000 -0.000000 -13.557700 10.694260 -4.988492 0.814748 3.761820 -5.125136 4.164304 1.773102 -1.997424 27.306042 0.484116 6.408301 -3.754128 0.291700 0.000000 -74.592799 -9.177059 1.368326 -5.287159 -2.814570 1.912728 -4.258591 -6.356845 1.769119 -0.296490 10.588769 -2.500786 -8.598678 -3.212549 -0.238096 -0.349932 0.000000 0.000000 0.000000 -4.097646 17.243474 3.064509 -55.043192 16.145089 4.033973 -5.035166 -6.758599 -0.009400 1.503819 4.399682 0.063299 -0.132550 -0.044665 -0.000000 0.000000 0.000000 0.000000 0.000000 0.000000 0.000000 14.078890 5.993295 0.819899 61.642197 34.608331 28.306746 1.349276 61.592805 0.010745 0.836030 7.966612 0.061456 0.015553 -0.408974 -0.000000 0.000000 0.000000 0.000000 0.000000 0.000000 0.000000 
26.889151 16.201502 2.383562 153.904854 -86.184276 -141.568354 -9.054693 0.051055 2.597826 -15.285822 -0.045935 -48.851754 -1.476495 1.845221 44.531211 1.533982 5.935516 -12.146472 -0.467400 -0.000001 -13.412300 10.981587 -5.068914 0.690001 2.749314 -5.940962 3.017004 1.511350 -2.308719 30.327549 0.542082 7.180449 -1.660153 0.553500 -0.000001 -77.857400 -9.374577 1.335827 -5.039177 -2.872120 1.897636 -4.247693 -6.460796 1.752377 -0.436070 10.716900 -2.301068 -8.514626 -3.298573 -0.245341 -0.335648 0.000000 0.000000 0.000000 -4.264279 16.922362 3.079373 -55.251108 14.857824 3.376515 -4.995358 -5.696865 -0.008896 2.143685 4.449727 0.088709 -0.126467 -0.034770 -0.000000 0.000000 0.000000 0.000000 0.000000 0.000000 0.000000 14.478833 6.200160 0.762337 62.843046 33.061268 27.730389 1.393266 60.212973 0.009311 0.554141 8.117113 0.041274 0.019273 -0.404476 0.000000 0.000000 0.000000 0.000000 0.000000 0.000000 0.000000 
26.751305 16.195163 2.402465 152.187931 -85.937499 -140.195219 -8.976178 0.157429 2.424531 -15.834121 0.388919 -48.068070 -1.521131 1.852524 45.103897 1.565139 5.908991 -13.160808 -0.624000 0.000000 -13.366200 11.280225 -5.117540 0.567653 1.703402 -6.755230 1.733200 1.221304 -2.601245 33.480334 0.561725 7.948519 0.597018 0.908400 -0.000000 -80.341999 -9.568554 1.294683 -4.793651 -2.926528 1.873034 -4.236691 -6.557698 1.725133 -0.576093 10.823589 -2.089174 -8.420226 -3.384077 -0.252585 -0.318536 0.000000 0.000000 0.000000 -4.443913 16.547856 3.096122 -55.494111 13.552964 2.751432 -4.952315 -4.703566 -0.008798 2.758274 4.583848 0.115618 -0.120085 -0.024195 -0.000000 0.000000 0.000000 0.000000 0.000000 0.000000 0.000000 14.863414 6.398301 0.711000 64.051208 31.541851 27.050508 1.435838 58.674155 0.007921 0.294655 8.271822 0.022078 0.021995 -0.398873 0.000000 0.000000 0.000000 0.000000 0.000000 0.000000 0.000000 
26.616844 16.188048 2.421794 150.531054 -85.667530 -138.858517 -8.889813 0.270471 2.260221 -16.390339 0.790581 -47.294002 -1.565311 1.858150 45.610912 1.604131 5.927345 -14.121685 -0.776700 0.000000 -13.394900 11.583060 -5.128455 0.451597 0.657782 -7.526375 0.335913 0.911855 -2.869703 36.728759 0.536670 8.652087 2.953324 1.347400 -0.000000 -81.823201 -9.757580 1.243143 -4.555701 -2.977064 1.837134 -4.225760 -6.646820 1.685491 -0.714811 10.910059 -1.873091 -8.316605 -3.468059 -0.259742 -0.298767 0.000000 0.000000 0.000000 -4.634268 16.111257 3.113880 -55.769791 12.247096 2.186056 -4.907971 -3.799407 -0.009018 3.325449 4.767689 0.143428 -0.113633 -0.013296 -0.000000 0.000000 0.000000 0.000000 0.000000 0.000000 0.000000 15.231893 6.576631 0.668879 65.264384 30.068459 26.260862 1.477115 56.970968 0.006584 0.055628 8.425339 0.003870 0.023878 -0.392063 -0.000000 0.000000 0.000000 0.000000 0.000000 0.000000 0.000000 
26.485920 16.180099 2.440854 148.787853 -85.382385 -137.410123 -8.784528 0.390850 2.107232 -16.968564 1.134233 -46.527966 -1.607510 1.860856 46.052337 1.651482 5.997326 -15.015557 -0.926100 -0.000000 -13.465000 11.897819 -5.096749 0.341050 -0.386405 -8.244944 -1.156671 0.594094 -3.113061 40.043908 0.467435 9.244481 5.321778 1.845199 0.000000 -82.175700 -9.955251 1.176084 -4.325059 -3.026475 1.786021 -4.212331 -6.728331 1.629872 -0.843569 10.986350 -1.671125 -8.212453 -3.549966 -0.266646 -0.279008 0.000000 0.000000 0.000000 -4.819747 15.630390 3.131457 -56.074561 10.915034 1.733290 -4.863581 -2.986043 -0.009451 3.827304 4.965743 0.170539 -0.107312 -0.002377 -0.000000 0.000000 0.000000 0.000000 0.000000 0.000000 0.000000 15.598498 6.713208 0.637394 66.476080 28.673468 25.366895 1.517085 55.100805 0.005275 -0.174633 8.572010 -0.014249 0.025223 -0.384000 -0.000000 0.000000 0.000000 0.000000 0.000000 0.000000 0.000000 
26.358682 16.171421 2.460054 147.128326 -85.087957 -136.018409 -8.673318 0.514016 1.966342 -17.543226 1.427910 -45.784178 -1.646483 1.863911 46.445150 1.704086 6.103041 -15.844634 -1.072700 -0.000000 -13.543500 12.202924 -5.022341 0.237115 -1.376592 -8.872285 -2.712215 0.280549 -3.332126 43.386904 0.358895 9.642878 7.592941 2.348600 -0.000000 -81.385600 -10.145188 1.096476 -4.103774 -3.071225 1.721396 -4.198514 -6.802501 1.559612 -0.969657 11.047748 -1.473333 -8.100773 -3.629245 -0.273357 -0.256955 0.000000 0.000000 0.000000 -5.008582 15.077925 3.149070 -56.403390 9.603444 1.392682 -4.821491 -2.292240 -0.009974 4.247050 5.138922 0.194752 -0.101404 0.008077 -0.000000 0.000000 0.000000 0.000000 0.000000 0.000000 0.000000 15.950678 6.817858 0.618944 67.684690 27.340903 24.339956 1.554349 53.073196 0.003964 -0.402642 8.708186 -0.032679 0.026118 -0.374732 -0.000000 0.000000 0.000000 0.000000 0.000000 0.000000 0.000000 
26.235172 16.162369 2.479300 145.547374 -84.791115 -134.684003 -8.558135 0.638048 1.837080 -18.108034 1.669827 -45.056409 -1.682202 1.867493 46.792531 1.760261 6.235879 -16.613096 -1.216800 0.000000 -13.598600 12.493243 -4.907870 0.136724 -2.296503 -9.405266 -4.307550 -0.019797 -3.532080 46.729109 0.220849 9.782532 9.654089 2.791400 -0.000000 -79.604700 -10.324829 1.004054 -3.888261 -3.110988 1.642810 -4.183705 -6.870346 1.474347 -1.093606 11.098515 -1.283807 -7.981774 -3.705894 -0.279874 -0.232649 0.000000 0.000000 0.000000 -5.197512 14.446662 3.166347 -56.751559 8.324521 1.175761 -4.782842 -1.728757 -0.010449 4.577200 5.243588 0.213264 -0.096084 0.017630 -0.000000 0.000000 0.000000 0.000000 0.000000 0.000000 0.000000 16.293001 6.885535 0.615945 68.879692 26.075034 23.172167 1.587654 50.898467 0.002582 -0.649083 8.833261 -0.053018 0.026869 -0.364368 -0.000000 0.000000 0.000000 0.000000 0.000000 0.000000 0.000000 
26.114997 16.153356 2.498179 143.964591 -84.494568 -133.332179 -8.433700 0.763838 1.719083 -18.670799 1.851351 -44.326822 -1.715771 1.870195 47.085280 1.819800 6.393879 -17.325482 -1.359600 -0.000001 -13.605000 12.773581 -4.756349 0.035456 -3.155245 -9.859644 -5.928068 -0.303018 -3.720087 50.046646 0.063866 9.612102 11.404635 3.106500 -0.000000 -77.113200 -10.503801 0.896982 -3.673431 -3.148335 1.549216 -4.164516 -6.933428 1.373583 -1.205564 11.149648 -1.113863 -7.866169 -3.780043 -0.286047 -0.209422 0.000000 0.000000 0.000000 -5.374594 13.781516 3.181116 -57.109723 7.018950 1.139971 -4.747102 -1.272074 -0.010753 4.818675 5.236362 0.223382 -0.091421 0.026005 -0.000000 0.000000 0.000000 0.000000 0.000000 0.000000 0.000000 16.640185 6.904642 0.626326 70.046776 24.890741 21.866061 1.615287 48.594965 0.001059 -0.935786 8.945042 -0.077066 0.027745 -0.352998 -0.000000 0.000000 0.000000 0.000000 0.000000 0.000000 0.000000 
